<?xml version="1.0" standalone="no"?>
<!DOCTYPE svg PUBLIC "-//W3C//DTD SVG 20010904//EN"
 "http://www.w3.org/TR/2001/REC-SVG-20010904/DTD/svg10.dtd">
<svg version="1.0" xmlns="http://www.w3.org/2000/svg"
 width="225.000000pt" height="225.000000pt" viewBox="0 0 225.000000 225.000000"
 preserveAspectRatio="xMidYMid meet">
<metadata>
Created by potrace 1.10, written by Peter Selinger 2001-2011
</metadata>
<g transform="translate(0.000000,225.000000) scale(0.100000,-0.100000)"
fill="#000000" stroke="none">
<path d="M160 2001 c0 -128 45 -378 96 -530 109 -329 289 -514 524 -540 56 -7
61 -9 35 -15 -166 -42 -253 -144 -306 -361 -24 -99 -30 -250 -16 -388 l9 -77
71 37 c187 98 361 345 453 641 52 168 53 169 53 69 1 -78 21 -216 38 -257 9
-22 31 142 32 239 1 46 4 82 7 78 4 -3 26 -65 49 -136 70 -214 173 -389 301
-512 66 -63 209 -158 220 -146 3 3 10 56 16 119 17 191 -17 393 -88 513 -47
80 -180 182 -244 186 -8 0 21 7 65 15 227 40 392 215 495 522 32 97 85 363 98
491 l8 84 -82 -7 c-299 -23 -547 -197 -702 -494 -49 -94 -122 -290 -122 -327
0 -10 -3 -15 -7 -11 -15 15 -28 174 -22 266 12 170 70 269 179 305 52 17 71
38 53 56 -31 31 -154 -74 -198 -167 -30 -63 -54 -165 -56 -239 -1 -45 -2 -43
-10 25 -17 145 -53 233 -127 312 -52 56 -93 81 -117 72 -27 -11 -12 -27 63
-69 81 -45 109 -80 143 -176 20 -55 23 -82 21 -194 -2 -127 -13 -216 -25 -185
-3 8 -17 55 -32 103 -57 192 -204 426 -339 539 -127 106 -287 172 -453 185
l-83 6 0 -32z m1830 -190 c-41 -200 -106 -327 -187 -363 -76 -34 -143 -7 -184
75 -17 33 -20 53 -16 104 11 146 147 272 332 306 86 16 84 20 55 -122z m-1639
109 c115 -35 207 -109 254 -203 66 -134 0 -287 -125 -287 -101 0 -190 140
-233 367 -30 156 -31 143 7 143 19 0 62 -9 97 -20z m174 -13 c71 -35 161 -105
224 -173 33 -37 61 -71 61 -77 0 -5 -14 -7 -32 -3 -35 7 -68 38 -68 65 0 9 -7
26 -15 38 -14 19 -19 21 -41 11 -21 -10 -27 -9 -41 12 -35 50 -77 91 -124 122
-27 17 -49 33 -49 35 0 7 42 -8 85 -30z m1220 1 c-16 -12 -56 -48 -89 -81 -52
-54 -60 -59 -78 -48 -26 16 -44 1 -58 -48 -5 -20 -13 -41 -17 -47 -18 -26 -83
-45 -83 -24 0 18 124 142 186 186 59 42 138 84 159 83 6 0 -3 -9 -20 -21z
m-170 -226 c-1 -115 -24 -144 -209 -264 -57 -37 -87 -65 -109 -100 -17 -26
-32 -46 -35 -44 -2 3 3 36 13 75 12 52 20 68 31 64 9 -3 14 2 14 16 0 26 22
78 44 106 15 19 15 18 10 -15 l-5 -35 16 35 c9 19 27 49 41 67 27 36 52 46 34
14 -20 -37 -10 -39 25 -4 38 38 54 39 35 3 -20 -38 6 -13 39 37 23 35 31 58
31 92 0 36 2 42 13 32 7 -7 12 -38 12 -79z m-868 -48 c12 -17 30 -37 39 -45
16 -13 16 -12 5 9 -22 41 -3 37 40 -7 l40 -43 -15 36 c-30 72 15 33 64 -55 30
-55 38 -61 20 -15 -5 14 -6 26 -2 26 12 0 49 -70 57 -109 4 -20 10 -29 14 -22
8 13 41 -95 40 -131 l0 -23 -10 24 c-20 50 -53 82 -157 152 -59 39 -115 79
-126 88 -36 32 -59 93 -60 156 0 80 17 109 24 40 3 -29 15 -63 27 -81z m-322
-213 c32 -24 30 -25 -30 -10 -40 10 -45 15 -59 57 -25 72 -19 78 23 24 22 -27
51 -59 66 -71z m1538 32 c-16 -33 -25 -39 -97 -60 -114 -33 -155 -31 -211 11
-24 19 -58 37 -75 41 -16 4 -30 9 -30 13 0 10 43 52 53 52 6 0 26 -18 45 -40
40 -47 98 -80 142 -80 46 0 104 34 147 85 43 52 57 40 26 -22z m-1226 35 c30
-28 29 -35 -6 -43 -17 -3 -49 -22 -73 -41 -36 -29 -51 -34 -95 -34 -28 0 -55
5 -58 10 -4 6 7 10 25 10 46 0 107 36 138 80 31 46 38 47 69 18z m171 -107
c70 -36 143 -136 171 -235 14 -53 5 -59 -15 -10 -49 118 -148 168 -226 113
-35 -26 -46 -18 -31 21 6 17 7 30 3 30 -18 0 -59 -66 -71 -113 -13 -52 -18
-52 -36 -4 -11 32 -11 31 -12 -20 -1 -28 4 -64 10 -80 13 -36 57 -82 89 -95
37 -15 6 -22 -37 -8 -59 19 -99 55 -129 115 -23 47 -26 64 -21 114 15 172 152
250 305 172z m715 0 c24 -14 45 -41 63 -77 22 -45 26 -64 22 -116 -7 -115 -56
-183 -151 -209 -55 -15 -69 -6 -24 16 61 28 87 77 86 155 -1 64 -1 64 -13 28
-13 -43 -26 -59 -26 -32 0 38 -21 94 -46 124 -31 37 -47 39 -34 4 16 -42 12
-44 -40 -17 -50 26 -50 26 -95 8 -47 -17 -81 -54 -116 -122 -27 -52 -26 -10 1
53 78 182 245 265 373 185z m-1082 -46 l65 0 -18 -48 c-20 -53 -24 -166 -7
-198 21 -41 2 -40 -39 2 -24 23 -59 76 -79 118 -20 42 -51 97 -69 124 -19 26
-34 49 -34 51 0 3 26 -7 58 -22 44 -21 72 -27 123 -27z m1394 23 c-14 -17 -48
-74 -75 -127 -32 -64 -64 -111 -96 -141 -26 -25 -44 -37 -41 -28 32 93 32 156
-1 231 l-19 42 71 0 c57 0 81 5 121 26 67 35 71 35 40 -3z m-935 -205 c33 -34
64 -80 77 -110 23 -55 17 -71 -11 -28 -34 52 -87 63 -188 39 -19 -4 -32 0 -47
15 -50 50 -1 141 75 141 33 0 45 -7 94 -57z m184 25 c22 -36 28 -83 15 -126
-9 -31 -9 -48 1 -77 12 -35 11 -39 -14 -64 l-27 -26 -22 30 c-16 21 -22 46
-24 90 -5 135 -3 149 19 172 27 29 34 29 52 1z m280 1 c21 -16 26 -29 26 -64
0 -59 -16 -70 -88 -58 -74 12 -125 -1 -157 -39 -29 -34 -32 -24 -10 30 54 129
157 188 229 131z m84 -29 c26 -56 24 -76 -16 -112 -15 -14 -37 -37 -49 -51
-13 -15 -30 -27 -39 -27 -11 0 -1 16 30 48 26 26 49 57 52 70 7 24 1 74 -11
105 -4 9 -3 17 1 17 5 -1 19 -23 32 -50z m-766 -72 c6 -16 14 -28 18 -28 4 0
24 -20 44 -45 27 -32 33 -45 22 -45 -9 0 -24 9 -34 21 -9 12 -34 39 -54 61
-40 41 -47 65 -25 87 10 10 13 9 15 -6 2 -10 8 -30 14 -45z m264 -65 c14 -9
29 -24 34 -33 9 -16 6 -17 -28 -9 -20 5 -54 9 -74 9 -21 0 -53 8 -73 17 -37
18 -48 34 -17 26 10 -2 34 0 53 6 39 11 71 7 105 -16z m360 17 c19 0 34 -5 34
-11 0 -17 -61 -37 -138 -44 -61 -7 -72 -5 -67 7 10 26 77 59 109 53 16 -3 44
-5 62 -5z m-357 -103 c-44 -26 -71 -58 -131 -152 -52 -81 -107 -134 -177 -170
-28 -14 -53 -25 -57 -25 -3 0 8 17 25 38 17 22 50 82 74 134 24 52 55 105 68
117 47 44 132 77 209 80 23 1 22 -1 -11 -22z m329 -3 c71 -29 91 -53 148 -172
31 -65 67 -129 82 -144 35 -38 18 -35 -54 8 -82 49 -107 75 -180 187 -41 63
-76 105 -99 118 -19 12 -35 23 -35 26 0 8 103 -9 138 -23z m-328 -38 c-5 -15
-15 -68 -20 -119 -8 -65 -19 -110 -40 -152 l-28 -60 -1 112 c-1 125 5 149 56
211 38 47 49 50 33 8z m244 -1 c48 -62 56 -96 55 -217 l-1 -113 -24 52 c-14
29 -29 79 -34 110 -21 135 -28 169 -35 186 -13 29 11 19 39 -18z m-524 -61 c0
-12 -70 -157 -90 -185 -14 -19 -20 -39 -17 -55 4 -21 -5 -35 -39 -70 l-44 -43
0 28 c0 35 35 152 62 206 32 64 128 154 128 119z m806 -10 c63 -42 154 -225
154 -310 0 -25 0 -25 -45 13 -36 30 -44 43 -40 61 4 16 -4 39 -24 70 -25 41
-81 162 -81 177 0 9 10 6 36 -11z m-632 -76 c-4 -13 -8 -68 -8 -123 -1 -79 -6
-110 -22 -145 -19 -41 -81 -116 -90 -107 -2 1 3 23 10 47 7 25 17 76 21 114 8
79 25 132 61 193 27 47 40 56 28 21z m471 -60 c19 -42 32 -95 40 -163 7 -56
18 -112 25 -124 20 -38 5 -34 -35 10 -57 64 -68 99 -75 236 -6 137 0 142 45
41z m-600 -143 c-3 -30 -10 -55 -14 -55 -10 0 -76 69 -70 74 11 9 84 44 88 41
2 -2 0 -29 -4 -60z m730 43 c25 -12 44 -25 43 -28 -2 -3 -22 -23 -44 -43 l-41
-37 -7 38 c-7 44 -8 92 -1 92 2 0 25 -10 50 -22z m134 -103 c11 -14 27 -57 35
-95 16 -69 22 -190 9 -190 -3 0 -28 14 -54 31 -66 42 -126 110 -134 151 -9 47
16 103 56 127 37 22 55 17 88 -24z m-951 19 c29 -20 52 -65 52 -102 0 -44 -51
-114 -113 -155 -94 -63 -91 -64 -84 39 12 178 72 269 145 218z"/>
</g>
</svg>
