<?xml version="1.0" standalone="no"?>
<!DOCTYPE svg PUBLIC "-//W3C//DTD SVG 20010904//EN"
 "http://www.w3.org/TR/2001/REC-SVG-20010904/DTD/svg10.dtd">
<svg version="1.0" xmlns="http://www.w3.org/2000/svg"
 width="225.000000pt" height="225.000000pt" viewBox="0 0 225.000000 225.000000"
 preserveAspectRatio="xMidYMid meet">
<metadata>
Created by potrace 1.10, written by Peter Selinger 2001-2011
</metadata>
<g transform="translate(0.000000,225.000000) scale(0.100000,-0.100000)"
fill="#000000" stroke="none">
<path d="M635 2008 c-91 -106 -178 -305 -191 -435 -4 -41 -18 -96 -36 -137
-24 -54 -31 -90 -37 -172 -8 -109 -3 -97 -90 -223 -29 -41 -56 -110 -47 -119
3 -2 12 12 21 31 18 39 54 81 62 73 3 -3 -6 -19 -21 -36 -14 -17 -33 -56 -42
-86 -18 -62 -13 -86 6 -29 16 49 57 96 77 88 14 -5 13 -8 -5 -14 -21 -8 -58
-69 -73 -121 -10 -38 -3 -35 15 5 18 38 50 77 65 77 5 0 12 4 15 9 4 5 -3 7
-14 4 -29 -8 -25 4 7 20 26 14 26 15 5 21 -17 6 -21 15 -20 46 0 22 4 40 9 40
5 0 5 7 2 17 -4 11 -3 14 5 9 8 -5 12 0 12 13 0 12 7 21 16 21 11 0 14 6 10
23 -3 12 -3 16 0 9 3 -6 10 -9 15 -6 6 3 5 11 -2 20 -9 11 -9 14 1 14 7 0 10
7 6 15 -3 8 -2 15 2 15 4 0 7 37 7 83 0 59 6 93 19 122 11 22 19 43 18 46 0 3
5 6 12 6 7 0 13 -16 15 -40 1 -22 11 -57 21 -77 11 -21 16 -41 12 -45 -4 -5
-1 -5 6 -1 6 4 12 2 12 -4 0 -6 11 -21 23 -34 l24 -24 -40 -20 -39 -20 93 1
c52 1 119 0 149 -3 38 -3 65 0 87 12 17 8 44 14 60 12 24 -4 25 -3 8 6 -17 9
-15 10 12 7 19 -2 31 1 30 7 -1 7 19 11 50 11 28 0 49 -3 47 -6 -2 -4 5 -5 16
-2 11 3 17 10 14 15 -4 6 13 -1 37 -14 24 -14 50 -23 57 -21 16 6 16 -14 0
-21 -7 -3 -1 -3 15 1 15 3 33 0 41 -6 8 -7 20 -10 27 -9 8 2 13 -2 12 -8 -1
-6 4 -11 12 -11 18 0 6 24 -51 99 -88 114 -206 196 -296 204 -24 2 -34 1 -23
-2 46 -11 106 -37 101 -42 -9 -8 67 -51 78 -45 5 4 6 1 3 -5 -9 -13 2 -42 15
-42 6 0 7 7 4 16 -5 14 -4 15 9 4 20 -17 3 -37 -31 -37 -14 0 -22 2 -18 6 21
15 11 33 -33 61 -26 17 -54 30 -62 30 -9 -1 0 -9 19 -19 19 -11 44 -29 55 -41
18 -20 16 -19 -25 4 -25 14 -52 26 -60 25 -8 0 7 -11 33 -25 27 -14 47 -27 45
-29 -5 -5 -108 10 -133 20 -16 6 -18 5 -8 -5 6 -7 33 -19 60 -26 l48 -13 -40
-2 c-22 -1 3 -5 55 -9 81 -5 104 -11 158 -39 34 -19 62 -40 62 -48 0 -10 -6
-8 -22 7 -39 36 -122 60 -208 60 -46 0 -99 7 -126 16 -60 20 -70 10 -13 -14
39 -17 41 -20 23 -26 -12 -4 -41 0 -65 8 -48 17 -66 13 -25 -5 38 -18 32 -28
-11 -18 -21 5 -41 9 -45 9 -15 0 -78 63 -78 77 0 8 -5 11 -12 7 -7 -5 -8 -3
-3 5 5 9 17 3 43 -21 l36 -33 -35 49 c-36 51 -105 114 -115 104 -3 -4 -2 -27
1 -52 8 -52 38 -101 75 -125 24 -15 25 -15 9 4 -19 24 -32 45 -26 45 2 0 17
-11 33 -25 16 -14 52 -34 79 -45 l50 -19 -120 1 c-86 1 -104 3 -65 7 44 5 50
8 32 14 -134 48 -178 263 -102 500 40 125 128 267 165 267 19 0 86 -51 80 -61
-4 -5 -1 -9 4 -9 6 0 11 -4 11 -9 0 -6 -17 -8 -37 -5 -34 4 -33 3 10 -9 70
-20 69 -28 -4 -22 -58 4 -60 4 -17 -4 84 -16 92 -32 13 -26 l-70 5 69 -15 c38
-8 71 -14 75 -13 3 0 15 0 26 -2 20 -1 20 -1 0 -10 -18 -8 -18 -9 5 -10 14 -2
29 -2 33 -1 4 1 3 -8 -3 -20 -11 -19 -10 -20 9 -9 12 6 21 7 20 3 -4 -22 4
-37 34 -65 17 -18 24 -26 15 -19 -13 10 -18 10 -18 2 0 -6 7 -14 16 -18 8 -3
20 -17 25 -31 5 -14 12 -22 15 -19 3 3 19 -8 35 -24 31 -32 30 -31 107 -31 46
0 61 -5 115 -41 73 -50 115 -106 132 -179 l13 -53 1 53 c1 65 -19 111 -65 152
-47 41 -20 38 42 -6 61 -41 99 -93 113 -149 9 -39 9 -39 10 -8 1 43 -12 74
-51 119 -22 24 -26 34 -13 27 53 -29 102 -106 115 -182 6 -35 8 -39 9 -16 0
17 -3 45 -8 63 -5 17 -8 32 -5 32 8 0 25 -53 40 -120 l13 -65 -2 67 c-3 70 6
82 17 23 5 -25 -3 -74 -25 -163 -27 -108 -30 -135 -23 -181 10 -61 23 -72 53
-42 22 22 29 81 10 81 -6 0 -9 8 -7 18 5 26 31 21 45 -9 17 -35 7 -83 -25
-114 -13 -14 -20 -25 -15 -25 20 0 52 47 61 90 l10 45 1 -36 c2 -77 -30 -119
-79 -104 -29 9 -25 -7 10 -40 98 -94 68 -223 -76 -316 -92 -60 -114 -68 -202
-79 -41 -6 -89 -18 -106 -28 -31 -18 -76 -91 -76 -124 0 -29 14 -20 32 20 22
48 89 92 140 92 62 0 158 38 233 92 l69 51 34 -39 c19 -22 48 -63 64 -92 17
-29 33 -51 35 -48 3 3 -6 25 -21 50 -28 48 -32 61 -15 50 22 -13 -9 31 -47 66
-20 19 -34 29 -30 23 4 -7 2 -13 -3 -13 -6 0 -11 3 -11 8 1 12 26 42 36 42 15
0 106 -64 162 -115 28 -26 49 -40 46 -31 -7 19 -105 100 -161 133 -24 14 -43
29 -43 34 0 5 2 9 4 9 7 0 171 -92 199 -112 16 -11 30 -18 33 -15 6 6 -101 74
-175 111 -38 20 -50 31 -43 38 12 12 105 -14 187 -53 25 -12 48 -19 52 -16 8
9 -101 56 -173 75 l-62 16 15 41 c12 30 16 96 19 263 3 170 7 231 19 259 8 20
14 38 12 39 -8 8 -87 -68 -81 -77 3 -6 15 -3 27 8 22 18 22 18 4 -3 -9 -11
-14 -25 -10 -29 5 -5 1 -4 -9 3 -10 8 -19 9 -22 3 -3 -5 0 -12 6 -15 7 -3 1
-3 -14 0 -21 5 -28 2 -28 -10 0 -8 -9 -20 -19 -26 -31 -16 -36 -12 -11 10 13
11 17 20 10 20 -10 0 -10 3 0 15 7 8 18 15 24 14 6 -1 18 -1 26 0 12 1 12 3 2
10 -10 6 -2 17 28 42 84 69 116 108 163 199 103 197 140 312 104 326 -7 2 -56
-15 -108 -40 -230 -109 -407 -138 -602 -101 -43 8 -105 15 -136 15 -69 0 -68
-1 -206 190 -112 154 -135 181 -189 221 -54 40 -77 37 -121 -13z m1352 -324
c7 -19 -41 -64 -71 -65 -18 -1 -18 -2 4 -8 21 -7 16 -10 -40 -24 -46 -12 -53
-15 -23 -12 23 3 49 8 59 12 11 4 15 2 11 -4 -4 -6 -43 -21 -87 -34 -44 -12
-78 -24 -76 -27 4 -4 106 21 140 34 13 5 17 4 13 -3 -7 -12 -124 -55 -196 -73
-23 -6 -41 -14 -38 -16 7 -7 136 25 170 43 16 8 34 12 40 10 13 -4 -76 -51
-166 -87 -32 -12 -56 -25 -53 -27 6 -7 114 25 160 48 29 14 43 16 50 8 7 -6 7
-9 1 -8 -13 4 -105 -47 -159 -86 l-41 -31 -66 66 -66 67 201 116 c111 63 207
116 214 116 7 1 15 -6 19 -15z m-372 -144 c-10 -11 -21 -17 -25 -15 -5 3 -10
0 -12 -7 -6 -17 -44 -19 -58 -3 -7 8 -18 15 -24 15 -7 0 -6 -4 2 -9 10 -6 9
-10 -7 -14 -12 -3 -18 -1 -15 4 3 6 -6 8 -20 5 -15 -3 -24 -1 -21 4 3 4 -1 10
-7 13 -16 6 3 8 105 9 42 1 77 5 77 10 0 4 5 8 12 8 6 0 3 -8 -7 -20z m159
-205 c-32 -30 -55 -58 -51 -62 4 -3 25 11 47 32 22 21 42 36 45 34 2 -3 -16
-25 -40 -49 -25 -24 -45 -48 -45 -52 0 -4 -11 -19 -26 -33 -14 -14 -22 -30
-18 -38 5 -9 4 -9 -7 1 -9 8 -10 17 -4 26 49 67 48 64 31 91 -9 14 -14 30 -11
35 7 11 114 69 128 70 5 0 -17 -25 -49 -55z m-24 -210 c0 -9 -82 -46 -93 -42
-7 3 8 14 33 26 46 21 60 25 60 16z m-30 -47 c0 6 4 12 9 12 5 0 8 -12 6 -27
-2 -16 -4 -36 -4 -47 -1 -15 -4 -16 -16 -6 -8 7 -15 18 -15 26 0 7 -5 16 -12
20 -7 4 -8 3 -4 -4 4 -7 5 -12 2 -12 -14 0 -14 20 0 35 14 13 19 14 25 3 7
-10 9 -10 9 0z m9 -254 c6 -5 4 -17 -6 -29 -13 -16 -15 -17 -10 -2 4 9 2 17
-2 17 -5 0 -11 6 -14 14 -6 16 17 16 32 0z"/>
<path d="M730 1810 c78 -8 123 -21 135 -39 4 -8 -2 -8 -20 -1 -15 6 -65 9
-113 9 l-87 -2 70 -8 c86 -10 155 -28 155 -41 0 -6 -8 -7 -17 -3 -34 12 -138
17 -178 7 -38 -9 -35 -10 35 -11 81 -1 127 -11 203 -43 34 -15 44 -24 35 -29
-9 -6 -9 -9 -1 -9 28 0 19 20 -27 61 -39 34 -49 49 -45 67 6 34 -44 52 -142
51 l-78 -2 75 -7z"/>
<path d="M660 1663 c0 -5 33 -9 74 -9 92 -2 222 -43 248 -79 4 -5 9 -7 13 -4
3 3 -10 21 -29 40 -19 18 -33 36 -30 40 2 3 -13 9 -34 13 -53 8 -242 7 -242
-1z"/>
<path d="M720 1600 c0 -6 15 -10 33 -10 72 0 208 -52 245 -93 17 -19 16 -19
-23 0 -47 24 -131 43 -183 42 -28 0 -17 -5 47 -20 168 -37 315 -138 412 -283
23 -33 38 -50 34 -36 -4 14 -8 44 -8 67 -1 23 -5 39 -9 37 -5 -3 -6 -10 -3
-15 4 -5 0 -9 -7 -9 -9 0 -9 -3 2 -10 8 -5 10 -10 4 -10 -19 0 -23 11 -13 37
5 13 5 22 1 19 -12 -7 -91 70 -102 99 -6 15 -19 24 -39 27 -19 3 -28 1 -24 -6
3 -6 -4 -1 -16 12 -12 12 -26 22 -31 22 -6 0 -10 6 -10 14 0 8 -10 22 -22 31
-17 12 -19 18 -10 22 15 6 -2 18 -68 49 -40 19 -210 30 -210 14z m420 -190 c0
-11 5 -20 10 -20 6 0 10 -5 10 -12 0 -6 -8 -3 -20 7 -11 10 -17 22 -13 28 3 5
1 7 -5 3 -6 -3 -13 -2 -17 4 -3 5 3 10 14 10 14 0 21 -6 21 -20z"/>
<path d="M1204 1552 c2 -9 14 -23 27 -29 13 -7 23 -17 22 -23 -2 -5 6 -14 16
-19 10 -6 26 -23 36 -38 18 -27 18 -28 0 -13 -12 10 -16 10 -11 2 4 -7 3 -19
-4 -27 -15 -18 11 -15 36 5 16 14 16 13 5 -7 -6 -13 -15 -23 -20 -23 -4 0 -8
-6 -8 -12 0 -7 -4 -22 -8 -33 -8 -20 -8 -20 9 0 13 17 15 17 10 2 -3 -9 -2
-23 4 -30 6 -6 10 -29 10 -50 0 -21 6 -44 13 -53 14 -17 29 -154 17 -154 -5 0
-6 -12 -3 -27 5 -26 5 -27 -5 -5 -6 15 -15 21 -22 16 -10 -6 -11 -4 0 7 17 18
15 32 -3 25 -10 -4 -15 1 -15 15 0 13 -6 19 -17 17 -10 -2 -18 3 -18 12 0 9
-10 15 -25 15 -19 0 -24 4 -22 20 4 20 4 20 -12 0 -12 -14 -14 -15 -10 -4 3
10 0 20 -5 24 -6 3 -8 11 -5 17 5 8 1 9 -12 3 -10 -4 -27 -7 -36 -7 -10 0 -18
-4 -18 -9 0 -6 -4 -8 -10 -4 -5 3 -6 13 -3 23 4 9 -7 2 -23 -16 -21 -22 -33
-29 -40 -22 -8 8 -10 4 -9 -12 1 -13 -4 -32 -11 -43 -18 -25 -18 -67 0 -110
12 -28 12 -34 0 -39 -7 -3 -16 0 -20 6 -4 7 -3 8 4 4 7 -4 12 -5 12 -2 0 3
-20 14 -45 25 -25 11 -45 23 -45 26 0 3 4 4 8 1 5 -3 9 1 9 8 0 8 -7 12 -15 8
-11 -4 -13 -1 -7 8 6 9 4 11 -4 5 -8 -4 -25 1 -42 14 -15 11 -34 21 -41 21 -8
1 -5 7 7 17 15 11 16 14 3 10 -9 -3 -32 -1 -52 5 -29 9 -33 13 -20 22 11 9
-21 12 -135 15 -154 3 -196 -2 -185 -21 5 -7 1 -9 -9 -5 -9 3 -16 3 -16 -1 3
-23 -15 -50 -29 -45 -15 4 -15 3 -2 -6 13 -9 13 -11 0 -11 -9 0 -11 -3 -5 -8
14 -10 17 -32 5 -32 -6 0 -10 -5 -10 -10 0 -7 9 -6 23 2 12 7 47 21 77 30 l55
18 -68 -5 c-42 -4 -66 -2 -63 4 5 8 94 26 216 44 47 8 -55 6 -123 -2 -47 -5
-64 -4 -57 3 28 28 320 14 320 -15 0 -5 7 -9 15 -9 8 0 64 -34 125 -75 60 -42
110 -73 110 -70 0 3 12 -2 26 -11 22 -15 27 -15 35 -3 6 9 12 10 17 4 4 -5 13
-10 21 -10 8 0 16 -6 19 -14 3 -10 -1 -12 -16 -9 -16 5 -19 2 -14 -11 5 -14 4
-14 -12 -2 -15 12 -23 12 -53 1 -36 -12 -40 -11 -155 49 -119 62 -212 91 -232
71 -7 -7 0 -10 21 -10 33 0 99 -27 148 -60 40 -26 22 -26 -22 1 -19 12 -36 20
-38 18 -2 -3 23 -20 56 -38 32 -19 57 -36 55 -39 -2 -2 -32 11 -66 28 -34 17
-59 27 -56 21 4 -5 37 -24 74 -42 58 -28 80 -33 162 -36 80 -4 110 0 195 23
103 28 139 32 189 19 27 -7 29 -7 21 16 -5 13 -8 69 -6 123 2 104 -15 236 -32
233 -5 -1 -15 18 -21 43 -7 25 -16 56 -20 70 -6 18 -5 22 2 15 6 -6 18 -35 26
-65 9 -35 15 -46 15 -29 1 15 -6 46 -14 69 -18 51 -19 58 -4 43 6 -6 17 -32
25 -59 l14 -49 -5 44 c-10 77 -56 148 -134 204 -36 26 -48 31 -47 19z m-34
-403 c-19 -6 -52 -18 -72 -29 -39 -19 -55 -10 -18 10 11 6 19 14 16 18 -2 4
21 8 52 9 53 1 55 1 22 -8z m25 -29 c9 -15 -4 -50 -20 -50 -8 0 -21 10 -30 23
l-15 22 -6 -22 c-4 -13 -10 -23 -15 -23 -13 0 -11 13 7 38 16 23 67 31 79 12z
m-81 -129 c27 -30 52 -34 85 -15 37 22 53 57 45 100 -8 42 1 44 21 4 37 -72
-5 -150 -82 -150 -92 0 -167 105 -115 163 16 19 17 18 22 -31 3 -29 13 -59 24
-71z m80 46 c3 4 6 1 6 -5 0 -6 -9 -16 -20 -22 -16 -8 -26 -7 -42 5 -21 14
-21 15 -3 16 11 0 14 3 8 6 -7 2 -13 9 -13 14 0 5 13 3 29 -5 16 -9 31 -12 35
-9z m126 -58 c3 -59 1 -76 -9 -60 -5 8 -19 12 -35 9 -31 -6 -32 -4 -6 22 11
11 23 39 26 62 6 34 9 38 15 21 4 -11 8 -35 9 -54z"/>
<path d="M656 1458 c34 -35 69 -74 78 -88 9 -13 16 -20 16 -14 0 17 -55 89
-97 129 -64 58 -61 39 3 -27z"/>
<path d="M580 1485 c0 -2 20 -23 45 -46 24 -23 58 -62 75 -87 16 -25 30 -39
30 -31 0 19 -51 99 -76 120 -27 22 -74 50 -74 44z"/>
<path d="M496 1172 c-9 -14 276 -22 291 -8 9 8 -26 12 -136 14 -88 2 -151 0
-155 -6z"/>
<path d="M635 1071 c-4 -7 6 -11 27 -11 18 0 56 -12 83 -25 28 -14 39 -23 25
-19 -14 3 -47 7 -75 9 l-50 4 51 -8 c59 -10 116 -34 213 -91 59 -34 141 -61
141 -46 0 10 -188 131 -244 156 -68 32 -160 48 -171 31z"/>
<path d="M480 1009 c-62 -17 -62 -17 -50 -38 6 -13 6 -22 0 -26 -5 -3 -6 -13
-3 -23 6 -15 5 -15 -10 -3 -15 12 -17 12 -11 -3 4 -10 0 -18 -10 -22 -18 -7
-21 -29 -7 -39 5 -3 13 0 17 6 4 8 3 9 -4 5 -7 -4 -12 -2 -12 3 0 12 61 52
105 70 l30 11 -30 -4 c-16 -3 -39 -8 -49 -12 -13 -5 -17 -4 -12 4 4 7 32 19
62 28 65 19 67 29 3 15 -24 -5 -45 -8 -48 -6 -5 6 46 25 67 25 9 0 24 5 32 10
20 13 -21 12 -70 -1z"/>
<path d="M438 894 c-16 -8 -28 -17 -28 -20 0 -3 5 -2 11 1 6 5 6 -2 -2 -16
-27 -52 -28 -56 -11 -56 10 0 29 8 43 18 15 11 37 24 50 29 23 10 23 10 -3 5
-14 -3 -33 -7 -40 -10 -9 -4 -15 0 -15 9 0 8 4 13 8 10 5 -3 25 4 46 15 40 21
32 28 -13 11 -15 -6 -29 -8 -32 -5 -3 2 6 9 19 14 13 5 17 10 9 10 -8 0 -27
-7 -42 -15z"/>
<path d="M306 848 c-14 -29 -26 -61 -25 -72 0 -16 4 -14 15 11 7 18 23 37 35
43 15 8 18 15 11 22 -8 8 -8 17 -1 30 6 11 6 18 0 18 -5 0 -21 -23 -35 -52z"/>
<path d="M500 823 c-8 -3 -34 -15 -58 -26 -34 -17 -42 -25 -38 -41 3 -13 2
-16 -6 -8 -6 6 -18 8 -27 5 -9 -4 -13 -2 -8 2 4 5 -1 17 -10 28 -10 11 -13 17
-7 14 7 -4 14 -1 17 6 7 20 -32 18 -42 -1 -11 -21 -24 -92 -17 -92 3 0 13 14
21 31 22 42 29 31 10 -14 -8 -20 -15 -47 -15 -59 0 -19 4 -16 23 16 27 48 57
65 34 20 -16 -32 -30 -124 -19 -124 4 0 14 15 22 33 8 17 34 46 58 64 52 39
41 44 -14 7 -28 -19 -35 -21 -24 -8 33 44 67 77 93 91 46 23 22 28 -25 4 -31
-15 -45 -18 -53 -9 -7 7 -7 9 0 5 6 -3 31 8 55 24 59 40 63 44 30 32z"/>
<path d="M1505 799 c-4 -6 -16 -9 -26 -6 -30 8 -22 -12 21 -50 49 -44 52 -77
13 -115 -35 -33 -73 -48 -124 -48 -24 0 -38 -4 -34 -10 10 -15 80 -12 125 6
40 16 42 16 65 -6 33 -31 41 -20 17 19 -17 28 -18 36 -7 69 7 20 23 42 36 49
13 7 29 20 36 29 25 34 16 41 -52 40 -36 0 -65 2 -65 6 0 12 25 16 73 10 26
-2 47 -1 47 5 0 13 -117 16 -125 2z"/>
<path d="M980 740 c-299 -19 -516 -106 -675 -270 -68 -70 -40 -59 38 15 166
159 387 231 747 245 107 3 161 7 120 8 -41 1 -84 4 -95 6 -11 2 -72 0 -135 -4z"/>
<path d="M1060 683 c-206 -24 -417 -100 -549 -200 -24 -18 -48 -30 -52 -27 -5
3 -8 1 -7 -4 2 -5 -10 -22 -26 -36 -15 -15 -26 -30 -22 -33 3 -3 25 12 48 33
93 86 189 139 342 189 91 30 284 68 391 78 22 2 11 4 -25 4 -36 0 -81 -2 -100
-4z"/>
<path d="M1180 663 c-193 -32 -396 -134 -500 -251 -49 -54 -129 -196 -118
-208 3 -3 19 23 35 58 45 95 111 169 212 236 107 72 218 117 366 148 93 19 96
32 5 17z"/>
<path d="M1183 620 c-149 -53 -278 -150 -352 -263 -23 -34 -46 -68 -51 -75 -6
-7 -8 -17 -4 -23 4 -6 19 12 35 41 75 137 230 262 384 310 22 7 44 16 50 21
13 13 -2 10 -62 -11z"/>
<path d="M1199 566 c-90 -61 -212 -186 -196 -202 3 -3 25 21 50 54 48 62 126
126 195 161 23 12 42 24 42 26 0 14 -32 0 -91 -39z"/>
</g>
</svg>
